<mxfile host="app.diagrams.net" agent="Mozilla/5.0 (Windows NT 10.0; Win64; x64) AppleWebKit/537.36 (KHTML, like Gecko) Chrome/132.0.0.0 Safari/537.36" version="26.0.11">
  <diagram name="Page-1" id="2YBvvXClWsGukQMizWep">
    <mxGraphModel grid="1" page="1" gridSize="10" guides="1" tooltips="1" connect="1" arrows="1" fold="1" pageScale="1" pageWidth="827" pageHeight="1169" math="0" shadow="0">
      <root>
        <mxCell id="0" />
        <mxCell id="1" parent="0" />
        <mxCell id="KFQoRSMoKo6lWCKC4XPC-30" value="d : GUI&lt;br&gt;DepositoCapi" style="shape=umlLifeline;perimeter=lifelinePerimeter;whiteSpace=wrap;html=1;container=0;dropTarget=0;collapsible=0;recursiveResize=0;outlineConnect=0;portConstraint=eastwest;newEdgeStyle={&quot;edgeStyle&quot;:&quot;elbowEdgeStyle&quot;,&quot;elbow&quot;:&quot;vertical&quot;,&quot;curved&quot;:0,&quot;rounded&quot;:0};fontColor=light-dark(#000000,#FFFFFF);" vertex="1" parent="1">
          <mxGeometry x="500" y="-820" width="100" height="370" as="geometry" />
        </mxCell>
        <mxCell id="KFQoRSMoKo6lWCKC4XPC-31" value="" style="html=1;points=[];perimeter=orthogonalPerimeter;outlineConnect=0;targetShapes=umlLifeline;portConstraint=eastwest;newEdgeStyle={&quot;edgeStyle&quot;:&quot;elbowEdgeStyle&quot;,&quot;elbow&quot;:&quot;vertical&quot;,&quot;curved&quot;:0,&quot;rounded&quot;:0};fontColor=light-dark(#000000,#FFFFFF);" vertex="1" parent="KFQoRSMoKo6lWCKC4XPC-30">
          <mxGeometry x="45" y="70" width="10" height="290" as="geometry" />
        </mxCell>
        <mxCell id="KFQoRSMoKo6lWCKC4XPC-34" value="t : Totem" style="shape=umlLifeline;perimeter=lifelinePerimeter;whiteSpace=wrap;html=1;container=0;dropTarget=0;collapsible=0;recursiveResize=0;outlineConnect=0;portConstraint=eastwest;newEdgeStyle={&quot;edgeStyle&quot;:&quot;elbowEdgeStyle&quot;,&quot;elbow&quot;:&quot;vertical&quot;,&quot;curved&quot;:0,&quot;rounded&quot;:0};fontColor=light-dark(#000000,#FFFFFF);" vertex="1" parent="1">
          <mxGeometry x="800" y="-820" width="100" height="370" as="geometry" />
        </mxCell>
        <mxCell id="KFQoRSMoKo6lWCKC4XPC-35" value="" style="html=1;points=[];perimeter=orthogonalPerimeter;outlineConnect=0;targetShapes=umlLifeline;portConstraint=eastwest;newEdgeStyle={&quot;edgeStyle&quot;:&quot;elbowEdgeStyle&quot;,&quot;elbow&quot;:&quot;vertical&quot;,&quot;curved&quot;:0,&quot;rounded&quot;:0};fontColor=light-dark(#000000,#FFFFFF);" vertex="1" parent="KFQoRSMoKo6lWCKC4XPC-34">
          <mxGeometry x="45" y="160" width="10" height="200" as="geometry" />
        </mxCell>
        <mxCell id="KFQoRSMoKo6lWCKC4XPC-37" value="return capo" style="html=1;verticalAlign=bottom;endArrow=open;dashed=1;endSize=8;edgeStyle=elbowEdgeStyle;elbow=vertical;curved=0;rounded=0;fontColor=light-dark(#000000,#FFFFFF);" edge="1" parent="1" source="KFQoRSMoKo6lWCKC4XPC-35" target="KFQoRSMoKo6lWCKC4XPC-31">
          <mxGeometry relative="1" as="geometry">
            <mxPoint x="600" y="-530" as="targetPoint" />
            <Array as="points">
              <mxPoint x="630" y="-530" />
              <mxPoint x="772" y="-440" />
            </Array>
            <mxPoint x="840" y="-440" as="sourcePoint" />
            <mxPoint as="offset" />
          </mxGeometry>
        </mxCell>
        <mxCell id="KFQoRSMoKo6lWCKC4XPC-38" value="Deposito capi" style="shape=umlFrame;whiteSpace=wrap;html=1;pointerEvents=0;recursiveResize=0;container=1;collapsible=0;width=160;fontColor=light-dark(#000000,#FFFFFF);" vertex="1" parent="1">
          <mxGeometry x="120" y="-910" width="1370" height="480" as="geometry" />
        </mxCell>
        <mxCell id="tZzeq-og3VInymqJiUVC-8" value="DB" style="shape=umlLifeline;perimeter=lifelinePerimeter;whiteSpace=wrap;html=1;container=0;dropTarget=0;collapsible=0;recursiveResize=0;outlineConnect=0;portConstraint=eastwest;newEdgeStyle={&quot;edgeStyle&quot;:&quot;elbowEdgeStyle&quot;,&quot;elbow&quot;:&quot;vertical&quot;,&quot;curved&quot;:0,&quot;rounded&quot;:0};fontColor=light-dark(#000000,#FFFFFF);" vertex="1" parent="KFQoRSMoKo6lWCKC4XPC-38">
          <mxGeometry x="1220" y="90" width="100" height="290" as="geometry" />
        </mxCell>
        <mxCell id="tZzeq-og3VInymqJiUVC-9" value="" style="html=1;points=[];perimeter=orthogonalPerimeter;outlineConnect=0;targetShapes=umlLifeline;portConstraint=eastwest;newEdgeStyle={&quot;edgeStyle&quot;:&quot;elbowEdgeStyle&quot;,&quot;elbow&quot;:&quot;vertical&quot;,&quot;curved&quot;:0,&quot;rounded&quot;:0};fontColor=light-dark(#000000,#FFFFFF);" vertex="1" parent="tZzeq-og3VInymqJiUVC-8">
          <mxGeometry x="45" y="260" width="10" height="20" as="geometry" />
        </mxCell>
        <mxCell id="tZzeq-og3VInymqJiUVC-10" value="p : Pallet" style="shape=umlLifeline;perimeter=lifelinePerimeter;whiteSpace=wrap;html=1;container=0;dropTarget=0;collapsible=0;recursiveResize=0;outlineConnect=0;portConstraint=eastwest;newEdgeStyle={&quot;edgeStyle&quot;:&quot;elbowEdgeStyle&quot;,&quot;elbow&quot;:&quot;vertical&quot;,&quot;curved&quot;:0,&quot;rounded&quot;:0};fontColor=light-dark(#000000,#FFFFFF);" vertex="1" parent="KFQoRSMoKo6lWCKC4XPC-38">
          <mxGeometry x="890" y="90" width="100" height="270" as="geometry" />
        </mxCell>
        <mxCell id="tZzeq-og3VInymqJiUVC-11" value="" style="html=1;points=[];perimeter=orthogonalPerimeter;outlineConnect=0;targetShapes=umlLifeline;portConstraint=eastwest;newEdgeStyle={&quot;edgeStyle&quot;:&quot;elbowEdgeStyle&quot;,&quot;elbow&quot;:&quot;vertical&quot;,&quot;curved&quot;:0,&quot;rounded&quot;:0};fontColor=light-dark(#000000,#FFFFFF);" vertex="1" parent="tZzeq-og3VInymqJiUVC-10">
          <mxGeometry x="45" y="210" width="10" height="50" as="geometry" />
        </mxCell>
        <mxCell id="tZzeq-og3VInymqJiUVC-12" value="aggiuntaCapo(capoDaInserire)" style="html=1;verticalAlign=bottom;endArrow=block;edgeStyle=elbowEdgeStyle;elbow=vertical;curved=0;rounded=0;fontColor=light-dark(#000000,#FFFFFF);" edge="1" parent="KFQoRSMoKo6lWCKC4XPC-38" target="tZzeq-og3VInymqJiUVC-11">
          <mxGeometry relative="1" as="geometry">
            <mxPoint x="735" y="330" as="sourcePoint" />
            <Array as="points">
              <mxPoint x="930" y="330" />
              <mxPoint x="1095" y="364.5799999999999" />
              <mxPoint x="1015" y="274.58000000000004" />
            </Array>
            <mxPoint x="960" y="330" as="targetPoint" />
            <mxPoint as="offset" />
          </mxGeometry>
        </mxCell>
        <mxCell id="tZzeq-og3VInymqJiUVC-13" value="gestire l&#39;inserimento del solo idCliente a db e non &lt;br&gt;dell&#39;intero oggetto Cliente con il Capo" style="text;html=1;align=center;verticalAlign=middle;resizable=0;points=[];autosize=1;strokeColor=none;fillColor=none;fontColor=light-dark(#000000,#FFFFFF);" vertex="1" parent="KFQoRSMoKo6lWCKC4XPC-38">
          <mxGeometry x="900" y="410" width="280" height="40" as="geometry" />
        </mxCell>
        <mxCell id="tZzeq-og3VInymqJiUVC-14" value="c : CapoDAO" style="shape=umlLifeline;perimeter=lifelinePerimeter;whiteSpace=wrap;html=1;container=0;dropTarget=0;collapsible=0;recursiveResize=0;outlineConnect=0;portConstraint=eastwest;newEdgeStyle={&quot;edgeStyle&quot;:&quot;elbowEdgeStyle&quot;,&quot;elbow&quot;:&quot;vertical&quot;,&quot;curved&quot;:0,&quot;rounded&quot;:0};fontColor=light-dark(#000000,#FFFFFF);" vertex="1" parent="KFQoRSMoKo6lWCKC4XPC-38">
          <mxGeometry x="1060" y="90" width="100" height="290" as="geometry" />
        </mxCell>
        <mxCell id="tZzeq-og3VInymqJiUVC-15" value="" style="html=1;points=[];perimeter=orthogonalPerimeter;outlineConnect=0;targetShapes=umlLifeline;portConstraint=eastwest;newEdgeStyle={&quot;edgeStyle&quot;:&quot;elbowEdgeStyle&quot;,&quot;elbow&quot;:&quot;vertical&quot;,&quot;curved&quot;:0,&quot;rounded&quot;:0};fontColor=light-dark(#000000,#FFFFFF);" vertex="1" parent="tZzeq-og3VInymqJiUVC-14">
          <mxGeometry x="45" y="240" width="10" height="40" as="geometry" />
        </mxCell>
        <mxCell id="tZzeq-og3VInymqJiUVC-17" value="executeQuery()" style="html=1;verticalAlign=bottom;endArrow=block;edgeStyle=elbowEdgeStyle;elbow=vertical;curved=0;rounded=0;fontColor=light-dark(#000000,#FFFFFF);" edge="1" parent="KFQoRSMoKo6lWCKC4XPC-38" source="tZzeq-og3VInymqJiUVC-15" target="tZzeq-og3VInymqJiUVC-9">
          <mxGeometry relative="1" as="geometry">
            <mxPoint x="1120" y="420" as="sourcePoint" />
            <Array as="points">
              <mxPoint x="1230" y="360" />
              <mxPoint x="1240" y="420" />
              <mxPoint x="1470" y="454.5799999999999" />
              <mxPoint x="1390" y="364.58000000000004" />
            </Array>
            <mxPoint x="1260" y="420" as="targetPoint" />
            <mxPoint as="offset" />
          </mxGeometry>
        </mxCell>
        <mxCell id="KFQoRSMoKo6lWCKC4XPC-58" value="setStatoSportello()" style="html=1;verticalAlign=bottom;endArrow=block;edgeStyle=elbowEdgeStyle;elbow=vertical;curved=0;rounded=0;fontColor=light-dark(#000000,#FFFFFF);" edge="1" parent="KFQoRSMoKo6lWCKC4XPC-38">
          <mxGeometry relative="1" as="geometry">
            <mxPoint x="437" y="440" as="sourcePoint" />
            <Array as="points">
              <mxPoint x="682" y="440" />
              <mxPoint x="722" y="470" />
              <mxPoint x="642" y="380" />
            </Array>
            <mxPoint x="725" y="440" as="targetPoint" />
          </mxGeometry>
        </mxCell>
        <mxCell id="KFQoRSMoKo6lWCKC4XPC-39" value="Cliente" style="shape=umlActor;verticalLabelPosition=bottom;verticalAlign=top;html=1;outlineConnect=0;fontColor=light-dark(#000000,#FFFFFF);" vertex="1" parent="1">
          <mxGeometry x="250" y="-860" width="30" height="60" as="geometry" />
        </mxCell>
        <mxCell id="KFQoRSMoKo6lWCKC4XPC-40" value="" style="endArrow=none;dashed=1;html=1;rounded=0;fontColor=light-dark(#000000,#FFFFFF);" edge="1" parent="1" source="KFQoRSMoKo6lWCKC4XPC-42">
          <mxGeometry width="50" height="50" relative="1" as="geometry">
            <mxPoint x="264.72" y="-520" as="sourcePoint" />
            <mxPoint x="265" y="-780" as="targetPoint" />
          </mxGeometry>
        </mxCell>
        <mxCell id="KFQoRSMoKo6lWCKC4XPC-41" value="" style="endArrow=none;dashed=1;html=1;rounded=0;fontColor=light-dark(#000000,#FFFFFF);" edge="1" parent="1" target="KFQoRSMoKo6lWCKC4XPC-42">
          <mxGeometry width="50" height="50" relative="1" as="geometry">
            <mxPoint x="265" y="-440" as="sourcePoint" />
            <mxPoint x="264.72" y="-770" as="targetPoint" />
          </mxGeometry>
        </mxCell>
        <mxCell id="KFQoRSMoKo6lWCKC4XPC-42" value="" style="html=1;points=[];perimeter=orthogonalPerimeter;outlineConnect=0;targetShapes=umlLifeline;portConstraint=eastwest;newEdgeStyle={&quot;edgeStyle&quot;:&quot;elbowEdgeStyle&quot;,&quot;elbow&quot;:&quot;vertical&quot;,&quot;curved&quot;:0,&quot;rounded&quot;:0};fontColor=light-dark(#000000,#FFFFFF);" vertex="1" parent="1">
          <mxGeometry x="260" y="-750" width="10" height="290" as="geometry" />
        </mxCell>
        <mxCell id="KFQoRSMoKo6lWCKC4XPC-43" value="depositoCapi()" style="html=1;verticalAlign=bottom;endArrow=block;edgeStyle=elbowEdgeStyle;elbow=vertical;curved=0;rounded=0;fontColor=light-dark(#000000,#FFFFFF);" edge="1" parent="1" target="KFQoRSMoKo6lWCKC4XPC-31">
          <mxGeometry relative="1" as="geometry">
            <mxPoint x="270" y="-730" as="sourcePoint" />
            <Array as="points">
              <mxPoint x="355" y="-730" />
            </Array>
            <mxPoint x="440" y="-730" as="targetPoint" />
            <mxPoint as="offset" />
          </mxGeometry>
        </mxCell>
        <mxCell id="KFQoRSMoKo6lWCKC4XPC-50" value="" style="endArrow=classic;html=1;rounded=0;fontColor=light-dark(#000000,#FFFFFF);" edge="1" parent="1">
          <mxGeometry width="50" height="50" relative="1" as="geometry">
            <mxPoint x="555" y="-660" as="sourcePoint" />
            <mxPoint x="555" y="-650" as="targetPoint" />
            <Array as="points">
              <mxPoint x="580" y="-660" />
              <mxPoint x="580" y="-650" />
            </Array>
          </mxGeometry>
        </mxCell>
        <mxCell id="KFQoRSMoKo6lWCKC4XPC-51" value="insertCapo()" style="edgeLabel;html=1;align=center;verticalAlign=middle;resizable=0;points=[];fontColor=light-dark(#000000,#FFFFFF);" vertex="1" connectable="0" parent="KFQoRSMoKo6lWCKC4XPC-50">
          <mxGeometry x="-0.0071" y="-1" relative="1" as="geometry">
            <mxPoint x="31" as="offset" />
          </mxGeometry>
        </mxCell>
        <mxCell id="KFQoRSMoKo6lWCKC4XPC-52" value="generaPrenotazioneCapo(clienteAutenticato)" style="html=1;verticalAlign=bottom;endArrow=block;edgeStyle=elbowEdgeStyle;elbow=vertical;curved=0;rounded=0;fontColor=light-dark(#000000,#FFFFFF);" edge="1" parent="1">
          <mxGeometry relative="1" as="geometry">
            <mxPoint x="555" y="-610" as="sourcePoint" />
            <Array as="points">
              <mxPoint x="835" y="-610" />
              <mxPoint x="920" y="-575.4200000000001" />
              <mxPoint x="840" y="-665.42" />
            </Array>
            <mxPoint x="845" y="-610" as="targetPoint" />
            <mxPoint as="offset" />
          </mxGeometry>
        </mxCell>
        <mxCell id="KFQoRSMoKo6lWCKC4XPC-57" value="confermaPagamento()" style="html=1;verticalAlign=bottom;endArrow=block;edgeStyle=elbowEdgeStyle;elbow=vertical;curved=0;rounded=0;fontColor=light-dark(#000000,#FFFFFF);" edge="1" parent="1" target="KFQoRSMoKo6lWCKC4XPC-31" source="KFQoRSMoKo6lWCKC4XPC-42">
          <mxGeometry x="-0.0016" relative="1" as="geometry">
            <mxPoint x="320" y="-480" as="sourcePoint" />
            <Array as="points">
              <mxPoint x="490" y="-480" />
              <mxPoint x="470" y="-360" />
              <mxPoint x="555" y="-325.4200000000001" />
              <mxPoint x="475" y="-415.41999999999996" />
            </Array>
            <mxPoint x="480" y="-360" as="targetPoint" />
            <mxPoint as="offset" />
          </mxGeometry>
        </mxCell>
        <mxCell id="PTnmxzgZ-QWiYPHwj2HS-1" value="CONTROLLER&lt;br&gt;DI CASO D&#39;USO" style="text;html=1;align=center;verticalAlign=middle;resizable=0;points=[];autosize=1;strokeColor=none;fillColor=none;fontColor=light-dark(#000000,#FFFFFF);" vertex="1" parent="1">
          <mxGeometry x="795" y="-867" width="110" height="40" as="geometry" />
        </mxCell>
        <mxCell id="KFQoRSMoKo6lWCKC4XPC-64" value="generaTotaleDaPagare() prende in ingresso solo un cliente avendo già di suo come attributo un TotemContext" style="text;html=1;align=center;verticalAlign=middle;resizable=0;points=[];autosize=1;strokeColor=none;fillColor=none;fontSize=14;" vertex="1" parent="1">
          <mxGeometry x="461" y="-980" width="710" height="30" as="geometry" />
        </mxCell>
        <mxCell id="vdmMM3_UL0RQRDuBhtkI-1" value="generaTotaleDaPagare trova prezzo associato a tipo lavaggio (hashmap), chiama strategy per la scontistica, restituisce totale scontato (getTotal)" style="text;html=1;align=center;verticalAlign=middle;resizable=0;points=[];autosize=1;strokeColor=none;fillColor=none;" vertex="1" parent="1">
          <mxGeometry x="450" y="-1010" width="790" height="30" as="geometry" />
        </mxCell>
        <mxCell id="tZzeq-og3VInymqJiUVC-1" value="" style="endArrow=classic;html=1;rounded=0;fontColor=light-dark(#000000,#FFFFFF);" edge="1" parent="1" source="KFQoRSMoKo6lWCKC4XPC-31" target="KFQoRSMoKo6lWCKC4XPC-31">
          <mxGeometry width="50" height="50" relative="1" as="geometry">
            <mxPoint x="560" y="-700" as="sourcePoint" />
            <mxPoint x="560" y="-690" as="targetPoint" />
            <Array as="points">
              <mxPoint x="580" y="-700" />
              <mxPoint x="580" y="-690" />
            </Array>
          </mxGeometry>
        </mxCell>
        <mxCell id="tZzeq-og3VInymqJiUVC-2" value="&lt;span&gt;&lt;font style=&quot;&quot;&gt;insertNumeroCapi()&lt;/font&gt;&lt;/span&gt;" style="edgeLabel;html=1;align=center;verticalAlign=middle;resizable=0;points=[];fontColor=light-dark(#000000,#FFFFFF);" connectable="0" vertex="1" parent="tZzeq-og3VInymqJiUVC-1">
          <mxGeometry x="-0.0071" y="-1" relative="1" as="geometry">
            <mxPoint x="51" as="offset" />
          </mxGeometry>
        </mxCell>
        <mxCell id="KFQoRSMoKo6lWCKC4XPC-2" value="loop" style="shape=umlFrame;whiteSpace=wrap;html=1;pointerEvents=0;recursiveResize=0;container=0;collapsible=0;width=60;height=20;fontColor=light-dark(#000000,#FFFFFF);" vertex="1" parent="1">
          <mxGeometry x="440" y="-680" width="990" height="170" as="geometry" />
        </mxCell>
        <mxCell id="tZzeq-og3VInymqJiUVC-3" value="CAPIRE COME GESTIRE IL CICLO SULL&#39;INTERFACCIA GRAFICA" style="text;html=1;align=center;verticalAlign=middle;resizable=0;points=[];autosize=1;strokeColor=none;fillColor=none;fontColor=light-dark(#000000,#FFFFFF);" vertex="1" parent="1">
          <mxGeometry x="630" y="-410" width="390" height="30" as="geometry" />
        </mxCell>
        <mxCell id="KFQoRSMoKo6lWCKC4XPC-3" value="[numCapi &amp;lt; n]" style="text;html=1;align=center;verticalAlign=middle;resizable=0;points=[];autosize=1;strokeColor=none;fillColor=none;fontColor=light-dark(#000000,#FFFFFF);" vertex="1" parent="1">
          <mxGeometry x="440" y="-652" width="100" height="30" as="geometry" />
        </mxCell>
        <mxCell id="tZzeq-og3VInymqJiUVC-16" value="insertCapo()" style="html=1;verticalAlign=bottom;endArrow=block;edgeStyle=elbowEdgeStyle;elbow=vertical;curved=0;rounded=0;fontColor=light-dark(#000000,#FFFFFF);" edge="1" parent="1" target="tZzeq-og3VInymqJiUVC-15">
          <mxGeometry relative="1" as="geometry">
            <mxPoint x="1065" y="-570" as="sourcePoint" />
            <Array as="points">
              <mxPoint x="1120" y="-570" />
              <mxPoint x="1430" y="-535.4200000000001" />
              <mxPoint x="1350" y="-625.42" />
            </Array>
            <mxPoint x="1170" y="-570" as="targetPoint" />
            <mxPoint as="offset" />
          </mxGeometry>
        </mxCell>
      </root>
    </mxGraphModel>
  </diagram>
</mxfile>
